<?xml version="1.0" standalone="no"?>
<!DOCTYPE svg PUBLIC "-//W3C//DTD SVG 20010904//EN"
 "http://www.w3.org/TR/2001/REC-SVG-20010904/DTD/svg10.dtd">
<svg version="1.0" xmlns="http://www.w3.org/2000/svg"
 width="446.000000pt" height="349.000000pt" viewBox="0 0 446.000000 349.000000"
 preserveAspectRatio="xMidYMid meet">

<g transform="translate(0.000000,349.000000) scale(0.100000,-0.100000)"
fill="#000000" stroke="none">
<path d="M1011 3459 c-65 -26 -91 -88 -91 -215 l0 -54 -190 0 c-211 0 -239 -6
-298 -63 -65 -63 -62 -5 -62 -1344 l0 -1213 -148 0 c-203 0 -192 13 -192 -218
0 -165 2 -181 23 -221 12 -25 41 -58 65 -75 l44 -31 2062 -3 2061 -2 45 22
c95 49 120 115 120 323 0 129 -10 179 -40 195 -10 6 -84 10 -164 10 l-146 0
-2 1242 -3 1243 -32 46 c-23 33 -46 52 -82 68 -45 19 -68 21 -239 21 l-190 0
-4 94 c-3 107 -18 138 -79 168 -32 17 -111 18 -1234 17 -757 0 -1209 -4 -1224
-10z m2399 -954 l0 -825 -37 0 c-60 -1 -997 -1 -1685 -1 l-628 1 0 825 0 825
1175 0 1175 0 0 -825z m-2490 481 l0 -64 -114 -4 c-95 -2 -117 -6 -135 -22
l-21 -19 0 -1064 c0 -1050 0 -1063 20 -1083 20 -20 33 -20 1570 -20 l1550 0
17 27 c17 25 18 91 21 1058 2 704 0 1042 -8 1067 -14 47 -44 58 -171 58 l-99
0 0 65 0 65 187 0 c159 0 189 -2 205 -17 17 -15 18 -67 18 -1240 l0 -1223
-628 0 -628 0 -73 -35 -73 -35 -323 0 -323 0 -73 35 -73 35 -628 0 -628 0 0
1218 c0 1086 2 1220 16 1240 15 21 20 22 205 22 l189 0 0 -64z m2 -778 c3
-548 4 -574 23 -605 10 -18 35 -41 55 -50 33 -17 108 -18 1235 -18 1001 0
1205 2 1233 14 20 8 42 30 57 56 l25 42 0 566 0 567 65 0 65 0 0 -965 0 -965
-1445 0 -1445 0 0 965 0 965 65 0 64 0 3 -572z m889 -1813 l73 -35 351 0 351
0 73 35 73 35 790 0 790 0 -4 -121 c-3 -106 -5 -122 -22 -135 -17 -12 -314
-14 -2050 -14 -1874 0 -2031 1 -2048 17 -15 14 -18 32 -18 135 l0 118 784 0
784 0 73 -35z"/>
<path d="M1938 2908 c-46 -16 -49 -49 -46 -429 3 -325 4 -348 22 -368 11 -12
31 -21 46 -21 18 0 122 59 301 171 151 94 284 180 297 192 24 23 29 64 10 89
-14 18 -549 355 -583 368 -11 4 -32 3 -47 -2z m290 -308 c84 -52 152 -97 152
-100 0 -4 -234 -152 -337 -213 -11 -7 -13 31 -13 213 l0 221 23 -13 c13 -7 92
-56 175 -108z"/>
<path d="M947 1372 c-14 -16 -17 -44 -17 -183 0 -181 4 -195 56 -205 25 -5 37
-1 53 15 20 20 21 32 21 189 0 151 -2 171 -18 185 -25 22 -75 21 -95 -1z"/>
<path d="M1226 1374 c-25 -24 -28 -51 -24 -209 3 -140 4 -148 27 -166 31 -26
57 -24 86 6 24 24 25 28 25 185 0 147 -2 162 -20 180 -24 24 -72 26 -94 4z"/>
<path d="M2705 1374 c-40 -20 -74 -53 -91 -86 l-15 -28 -527 0 c-508 0 -528
-1 -559 -20 -39 -24 -45 -68 -13 -100 20 -20 33 -20 558 -20 l537 0 20 -36
c38 -71 125 -112 209 -100 55 9 122 56 145 103 l16 33 262 0 c257 0 263 0 283
22 26 28 26 70 -1 94 -19 17 -42 19 -283 22 l-261 3 -24 38 c-37 60 -93 91
-166 91 -35 0 -73 -7 -90 -16z m115 -129 c72 -37 34 -139 -46 -123 -9 1 -26
15 -37 30 -17 23 -18 31 -8 56 10 24 36 46 59 51 2 1 16 -6 32 -14z"/>
</g>
</svg>
